<svg xmlns="http://www.w3.org/2000/svg" width="255" height="255" viewBox="0 0 255 255" version="1.1"><path d="M 90.635 66.647 C 63.297 92.835, 41.058 114.377, 41.215 114.518 C 43.724 116.763, 100.090 150.067, 104.192 151.728 C 107.322 152.995, 113.429 154.534, 117.763 155.147 C 139.545 158.227, 162.003 145.682, 166.629 127.850 C 168.194 121.816, 167.127 115.392, 163.780 110.691 L 161.635 107.678 166.195 108.303 C 177.985 109.919, 192.553 104.553, 200.764 95.568 C 213.277 81.877, 213.020 68.627, 200.011 56.740 C 195.327 52.459, 172.863 38.182, 144.984 21.766 L 140.341 19.032 90.635 66.647 M 127.621 54.301 L 111.743 69.531 131.139 81.269 C 141.808 87.725, 152.100 93.455, 154.011 94.003 C 159.138 95.474, 168.010 95.216, 173.205 93.446 C 178.457 91.656, 185.381 86.098, 187.526 81.949 C 190.574 76.055, 188.962 69.091, 183.339 63.857 C 181.185 61.852, 144.416 38.856, 143.651 39.035 C 143.568 39.055, 136.355 45.924, 127.621 54.301 M 84.011 96.079 C 73.635 106.047, 67.888 112.255, 68.511 112.822 C 71.958 115.961, 109.038 137.231, 113.238 138.478 C 122.442 141.211, 131.362 139.786, 139.273 134.319 C 150.278 126.713, 152.036 114.860, 143.339 106.902 C 141.295 105.032, 106.883 83.571, 101 80.497 C 100.725 80.354, 93.080 87.365, 84.011 96.079 M 203.500 100.500 C 196.373 107.627, 188.175 111.890, 178.729 113.381 C 173.720 114.171, 172.094 114.802, 172.479 115.806 C 172.766 116.553, 173 119.641, 173 122.670 L 173 128.176 177.250 127.472 C 191.837 125.058, 205.046 114.357, 208.978 101.767 C 211.296 94.343, 209.965 94.035, 203.500 100.500 M 204.349 119.677 C 198.922 125.267, 187.635 131.502, 181.041 132.552 C 172.463 133.917, 173 133.375, 173 140.658 L 173 147.279 178.011 146.685 C 185.464 145.802, 194.912 140.871, 200.409 134.994 C 205.631 129.411, 210.311 120.311, 209.818 116.697 C 209.525 114.552, 209.096 114.786, 204.349 119.677 M 41.201 127.478 L 41.500 134.284 70.854 152.085 C 86.999 161.876, 102.974 170.849, 106.354 172.026 C 114.173 174.747, 127.902 175.692, 135.119 174.004 C 146.898 171.250, 159.715 162.399, 163.953 154.091 C 165.929 150.219, 168.377 142.043, 167.749 141.415 C 167.538 141.205, 164.792 143.526, 161.645 146.573 C 155.233 152.784, 144.889 158.259, 136.131 160.077 C 127.211 161.928, 111.835 160.779, 103.674 157.650 C 98.242 155.567, 47.506 125.897, 42.201 121.701 C 41.156 120.875, 40.960 122.007, 41.201 127.478 M 203.500 139.500 C 196.545 146.455, 188.416 150.766, 179.315 152.325 L 173 153.406 173 160.291 L 173 167.176 177.250 166.472 C 191.837 164.058, 205.046 153.357, 208.978 140.767 C 211.296 133.343, 209.965 133.035, 203.500 139.500 M 41.005 147.191 L 41.009 153.500 69.755 170.946 C 85.565 180.541, 101.061 189.436, 104.192 190.712 C 107.322 191.988, 113.429 193.534, 117.763 194.147 C 140.886 197.417, 164.061 183.126, 167.465 163.500 L 168.159 159.500 162.329 165.317 C 147.475 180.141, 125.032 184.653, 103.605 177.121 C 100.484 176.024, 85.458 167.601, 70.215 158.402 C 54.972 149.203, 42.163 141.498, 41.750 141.279 C 41.337 141.061, 41.002 143.721, 41.005 147.191 M 203.980 158.981 C 196.598 166.363, 189.268 169.873, 175.750 172.503 C 173.088 173.021, 173 173.245, 173 179.519 C 173 185.974, 173.011 186, 175.843 186 C 183.334 186, 195.660 179.568, 201.994 172.354 C 206.050 167.735, 210.247 158.825, 209.818 155.744 C 209.528 153.664, 209.012 153.951, 203.980 158.981 M 41.204 166.601 L 41.500 173.221 70.864 191.057 C 87.014 200.867, 102.989 209.854, 106.364 211.029 C 118.964 215.415, 134.980 214.554, 146.786 208.855 C 152.368 206.161, 161.620 197.666, 163.953 193.091 C 165.929 189.219, 168.377 181.043, 167.749 180.415 C 167.538 180.205, 164.792 182.526, 161.645 185.573 C 155.233 191.784, 144.889 197.259, 136.131 199.077 C 132.888 199.750, 126.300 200.035, 120.511 199.754 C 107.889 199.139, 100.948 196.598, 84.542 186.581 C 77.919 182.537, 65.392 174.898, 56.704 169.605 L 40.908 159.981 41.204 166.601 M 41.010 186.191 L 41.020 192.500 69.760 209.920 C 85.567 219.501, 101.057 228.380, 104.182 229.650 C 131.275 240.667, 163.056 227.033, 167.465 202.504 L 168.183 198.507 161.661 204.770 C 146.406 219.419, 124.902 223.607, 103.523 216.093 C 100.486 215.025, 85.513 206.618, 70.250 197.410 C 54.988 188.202, 42.163 180.491, 41.750 180.275 C 41.337 180.059, 41.004 182.721, 41.010 186.191" stroke="none" fill="#43f0e0" fill-rule="evenodd"/><path d="M 0 127.504 L 0 255.008 127.750 254.754 L 255.500 254.500 255.754 127.250 L 256.008 0 128.004 0 L 0 0 0 127.504 M 0.485 128 C 0.485 198.125, 0.604 226.813, 0.750 191.750 C 0.896 156.688, 0.896 99.313, 0.750 64.250 C 0.604 29.188, 0.485 57.875, 0.485 128 M 90.635 66.647 C 63.297 92.835, 41.058 114.377, 41.215 114.518 C 43.724 116.763, 100.090 150.067, 104.192 151.728 C 107.322 152.995, 113.429 154.534, 117.763 155.147 C 139.545 158.227, 162.003 145.682, 166.629 127.850 C 168.194 121.816, 167.127 115.392, 163.780 110.691 L 161.635 107.678 166.195 108.303 C 177.985 109.919, 192.553 104.553, 200.764 95.568 C 213.277 81.877, 213.020 68.627, 200.011 56.740 C 195.327 52.459, 172.863 38.182, 144.984 21.766 L 140.341 19.032 90.635 66.647 M 127.621 54.301 L 111.743 69.531 131.139 81.269 C 141.808 87.725, 152.100 93.455, 154.011 94.003 C 159.138 95.474, 168.010 95.216, 173.205 93.446 C 178.457 91.656, 185.381 86.098, 187.526 81.949 C 190.574 76.055, 188.962 69.091, 183.339 63.857 C 181.185 61.852, 144.416 38.856, 143.651 39.035 C 143.568 39.055, 136.355 45.924, 127.621 54.301 M 84.011 96.079 C 73.635 106.047, 67.888 112.255, 68.511 112.822 C 71.958 115.961, 109.038 137.231, 113.238 138.478 C 122.442 141.211, 131.362 139.786, 139.273 134.319 C 150.278 126.713, 152.036 114.860, 143.339 106.902 C 141.295 105.032, 106.883 83.571, 101 80.497 C 100.725 80.354, 93.080 87.365, 84.011 96.079 M 203.500 100.500 C 196.373 107.627, 188.175 111.890, 178.729 113.381 C 173.720 114.171, 172.094 114.802, 172.479 115.806 C 172.766 116.553, 173 119.641, 173 122.670 L 173 128.176 177.250 127.472 C 191.837 125.058, 205.046 114.357, 208.978 101.767 C 211.296 94.343, 209.965 94.035, 203.500 100.500 M 204.349 119.677 C 198.922 125.267, 187.635 131.502, 181.041 132.552 C 172.463 133.917, 173 133.375, 173 140.658 L 173 147.279 178.011 146.685 C 185.464 145.802, 194.912 140.871, 200.409 134.994 C 205.631 129.411, 210.311 120.311, 209.818 116.697 C 209.525 114.552, 209.096 114.786, 204.349 119.677 M 41.201 127.478 L 41.500 134.284 70.854 152.085 C 86.999 161.876, 102.974 170.849, 106.354 172.026 C 114.173 174.747, 127.902 175.692, 135.119 174.004 C 146.898 171.250, 159.715 162.399, 163.953 154.091 C 165.929 150.219, 168.377 142.043, 167.749 141.415 C 167.538 141.205, 164.792 143.526, 161.645 146.573 C 155.233 152.784, 144.889 158.259, 136.131 160.077 C 127.211 161.928, 111.835 160.779, 103.674 157.650 C 98.242 155.567, 47.506 125.897, 42.201 121.701 C 41.156 120.875, 40.960 122.007, 41.201 127.478 M 203.500 139.500 C 196.545 146.455, 188.416 150.766, 179.315 152.325 L 173 153.406 173 160.291 L 173 167.176 177.250 166.472 C 191.837 164.058, 205.046 153.357, 208.978 140.767 C 211.296 133.343, 209.965 133.035, 203.500 139.500 M 41.005 147.191 L 41.009 153.500 69.755 170.946 C 85.565 180.541, 101.061 189.436, 104.192 190.712 C 107.322 191.988, 113.429 193.534, 117.763 194.147 C 140.886 197.417, 164.061 183.126, 167.465 163.500 L 168.159 159.500 162.329 165.317 C 147.475 180.141, 125.032 184.653, 103.605 177.121 C 100.484 176.024, 85.458 167.601, 70.215 158.402 C 54.972 149.203, 42.163 141.498, 41.750 141.279 C 41.337 141.061, 41.002 143.721, 41.005 147.191 M 203.980 158.981 C 196.598 166.363, 189.268 169.873, 175.750 172.503 C 173.088 173.021, 173 173.245, 173 179.519 C 173 185.974, 173.011 186, 175.843 186 C 183.334 186, 195.660 179.568, 201.994 172.354 C 206.050 167.735, 210.247 158.825, 209.818 155.744 C 209.528 153.664, 209.012 153.951, 203.980 158.981 M 41.204 166.601 L 41.500 173.221 70.864 191.057 C 87.014 200.867, 102.989 209.854, 106.364 211.029 C 118.964 215.415, 134.980 214.554, 146.786 208.855 C 152.368 206.161, 161.620 197.666, 163.953 193.091 C 165.929 189.219, 168.377 181.043, 167.749 180.415 C 167.538 180.205, 164.792 182.526, 161.645 185.573 C 155.233 191.784, 144.889 197.259, 136.131 199.077 C 132.888 199.750, 126.300 200.035, 120.511 199.754 C 107.889 199.139, 100.948 196.598, 84.542 186.581 C 77.919 182.537, 65.392 174.898, 56.704 169.605 L 40.908 159.981 41.204 166.601 M 41.010 186.191 L 41.020 192.500 69.760 209.920 C 85.567 219.501, 101.057 228.380, 104.182 229.650 C 131.275 240.667, 163.056 227.033, 167.465 202.504 L 168.183 198.507 161.661 204.770 C 146.406 219.419, 124.902 223.607, 103.523 216.093 C 100.486 215.025, 85.513 206.618, 70.250 197.410 C 54.988 188.202, 42.163 180.491, 41.750 180.275 C 41.337 180.059, 41.004 182.721, 41.010 186.191" stroke="none" fill="#14181a" fill-rule="evenodd"/></svg>